<?xml version="1.0" encoding="utf-8"?>
<!-- Generator: Adobe Illustrator 18.0.0, SVG Export Plug-In . SVG Version: 6.00 Build 0)  -->
<!DOCTYPE svg PUBLIC "-//W3C//DTD SVG 1.1//EN" "http://www.w3.org/Graphics/SVG/1.1/DTD/svg11.dtd">
<svg version="1.1" id="Layer_1" xmlns="http://www.w3.org/2000/svg" xmlns:xlink="http://www.w3.org/1999/xlink" x="0px" y="0px"
	 viewBox="0 0 66.3 113.8" fill="#ffffff" enable-background="new 0 0 66.3 113.8" xml:space="preserve">
<g>
	<path d="M66.3,57c0,0.9-0.4,1.8-1.2,2.6l-53,53c-0.8,0.8-1.7,1.2-2.6,1.2c-0.9,0-1.8-0.4-2.6-1.2l-5.8-5.8
		c-0.8-0.7-1.2-1.5-1.2-2.6c0-0.9,0.4-1.8,1.2-2.6L46,57L1.2,12.2C0.4,11.4,0,10.5,0,9.6C0,8.5,0.4,7.6,1.2,7L7,1.2
		C7.6,0.4,8.5,0,9.6,0c0.9,0,1.8,0.4,2.6,1.2l53,53c0.8,0.8,1.2,1.7,1.2,2.6V57z"/>
</g>
</svg>
